<svg width="150" height="114" viewBox="0 0 150 114" fill="none" xmlns="http://www.w3.org/2000/svg">
<g clip-path="url(#clip0_16_847)">
<path d="M32.1375 103.624C38.9643 107.582 47.4683 108.531 57.0995 108.268C56.936 105.275 57.9409 102.337 59.8998 100.08C61.8586 97.8234 64.6161 96.4269 67.5836 96.1889C70.551 95.9509 73.4934 96.8901 75.7824 98.8061C78.0715 100.722 79.5259 103.463 79.8351 106.444C92.0114 105.25 105.078 104.18 118.287 105.68C151.92 109.499 139.518 43.5023 114.753 18.9979C89.9871 -5.50645 51.4165 -6.42712 28.6029 16.9416C5.78931 40.3103 2.17813 86.2511 32.1375 103.624Z" fill="#F2F2F2"/>
<path d="M80.539 114C118.901 114 150 109.176 150 103.224C150 97.273 118.901 92.4485 80.539 92.4485C42.1767 92.4485 11.0779 97.273 11.0779 103.224C11.0779 109.176 42.1767 114 80.539 114Z" fill="#3F3D56"/>
<path d="M77.6197 71.7258C77.6197 71.7258 65.1946 70.2187 63.6976 72.9315C62.2006 75.6443 63.2485 77.9049 65.1946 79.2613C67.1407 80.6177 77.9191 86.7968 77.9191 86.7968L78.8173 88.3039L80.7635 88.0025L82.7096 86.194L81.8114 84.5362C81.8114 84.5362 74.3263 80.0149 74.1766 78.8092C74.1766 78.8092 81.0629 81.9741 81.8114 81.3713C82.5599 80.7684 90.9431 77.9049 89.5958 76.2471C88.2485 74.5893 84.8054 72.178 84.8054 72.178L77.6197 71.7258Z" fill="#2F2E41"/>
<path opacity="0.1" d="M77.6197 71.7258C77.6197 71.7258 65.1946 70.2187 63.6976 72.9315C62.2006 75.6443 63.2485 77.9049 65.1946 79.2613C67.1407 80.6177 77.9191 86.7968 77.9191 86.7968L78.8173 88.3039L80.7635 88.0025L82.7096 86.194L81.8114 84.5362C81.8114 84.5362 74.3263 80.0149 74.1766 78.8092C74.1766 78.8092 81.0629 81.9741 81.8114 81.3713C82.5599 80.7684 90.9431 77.9049 89.5958 76.2471C88.2485 74.5893 84.8054 72.178 84.8054 72.178L77.6197 71.7258Z" fill="black"/>
<path d="M79.2665 86.9475C79.2665 86.9475 77.021 86.4954 77.4701 88.0025C77.9192 89.5096 78.2186 92.5238 77.4701 93.2773C76.7216 94.0309 74.3264 97.3465 76.7216 97.6479C79.1168 97.9493 81.6617 94.9351 81.6617 94.9351C81.6617 94.9351 83.3084 90.1124 84.506 89.6603C85.7036 89.2081 86.9013 87.3996 86.3025 86.9475C85.7036 86.4954 82.1108 83.6319 81.8114 83.7826C81.512 83.9333 81.6617 85.5911 81.6617 85.5911C81.6617 85.5911 80.4641 87.5503 79.2665 86.9475Z" fill="#2F2E41"/>
<path d="M98.6526 81.2959H78.7424V97.7233H98.6526V81.2959Z" fill="white"/>
<path d="M0 55.823V59.4901L18.0069 81.1454H21.0561L0 55.823Z" fill="white"/>
<path d="M0 27.8669V31.5339L41.2531 81.1454H44.3022L0 27.8669Z" fill="white"/>
<path d="M64.9453 109.229L68.1459 110.98L125.225 99.3735L126.68 96.6763L64.9453 109.229Z" fill="white"/>
<path d="M0 37.1855V40.8525L33.5043 81.1453H36.5536L0 37.1855Z" fill="white"/>
<path d="M57.7844 26.4765V22.9714H54.8699L57.7844 26.4765Z" fill="white"/>
<path d="M0 74.4604V78.1274L2.50958 81.1453H5.55868L0 74.4604Z" fill="white"/>
<path d="M33.0466 104.884L36.3652 106.396L51.7585 102.072L53.0153 99.2754L33.0466 104.884Z" fill="white"/>
<path d="M0 69.801V73.4679L6.38383 81.1453H9.43309L0 69.801Z" fill="white"/>
<path d="M0 60.4822V64.1492L14.1326 81.1452H17.1817L0 60.4822Z" fill="white"/>
<path d="M0 41.845V45.5119L29.6301 81.1454H32.6792L0 41.845Z" fill="white"/>
<path d="M34.6728 22.9714H31.6235L57.7843 54.4327V50.7658L34.6728 22.9714Z" fill="white"/>
<path d="M42.4217 22.9714H39.3726L57.7845 45.114V41.4469L42.4217 22.9714Z" fill="white"/>
<path d="M50.1703 22.9714H47.1211L57.7844 35.7952V32.1283L50.1703 22.9714Z" fill="white"/>
<path d="M3.67801 22.9714H0.628906L49.0018 81.1454H52.0509L3.67801 22.9714Z" fill="white"/>
<path d="M7.55243 22.9714H4.50317L52.8762 81.1454H55.9253L7.55243 22.9714Z" fill="white"/>
<path d="M15.3011 22.9714H12.252L57.7844 77.7294V74.0625L15.3011 22.9714Z" fill="white"/>
<path d="M23.0497 22.9714H20.0005L57.7843 68.4107V64.7438L23.0497 22.9714Z" fill="white"/>
<path d="M26.9241 22.9714H23.875L57.7844 63.7514V60.0845L26.9241 22.9714Z" fill="white"/>
<path d="M80.6173 41.5168C80.6173 41.5168 80.7905 42.098 79.8091 42.621C78.8278 43.1441 78.5391 45.12 79.6937 45.7012C80.8482 46.2824 81.1946 47.0379 80.6173 47.5609C80.04 48.084 79.001 49.4787 80.3864 49.8274C81.7719 50.1761 81.945 50.8735 81.5409 51.1641C81.1369 51.4547 82.4646 50.6411 82.4646 50.6411C82.4646 50.6411 82.6955 52.0358 83.9077 51.6872C85.12 51.3385 88.5259 44.7132 86.7941 43.7834C85.0623 42.8535 80.6173 41.5168 80.6173 41.5168Z" fill="#2F2E41"/>
<path d="M79.0418 54.7712L73.5029 58.6896C73.5029 58.6896 69.3113 54.319 69.3113 51.757C69.3113 49.1949 67.0658 44.3722 66.0179 46.3314C64.97 48.2907 67.2155 52.9627 67.2155 52.9627L71.4071 62.9095C71.4071 62.9095 73.8023 63.3616 75.1496 62.3067C76.4969 61.2517 80.2394 59.1418 80.2394 59.1418L79.0418 54.7712Z" fill="#FFB9B9"/>
<path d="M84.5061 48.2151C86.821 48.2151 88.6977 46.3258 88.6977 43.9953C88.6977 41.6647 86.821 39.7754 84.5061 39.7754C82.1911 39.7754 80.3145 41.6647 80.3145 43.9953C80.3145 46.3258 82.1911 48.2151 84.5061 48.2151Z" fill="#FFB9B9"/>
<path d="M82.3353 46.9341C82.3353 46.9341 83.8323 50.8526 83.2335 51.7568C82.6347 52.6611 81.8862 52.6611 81.2874 52.9625C80.988 53.1132 77.8442 54.3189 77.8442 55.2232C77.8587 55.8042 78.0128 56.373 78.2933 56.881L78.7424 59.443L82.485 61.8544L87.4251 61.2516L91.1676 59.1416C91.1676 59.1416 91.7664 53.5654 90.1197 52.6611C88.473 51.7568 86.5269 49.6469 86.6766 48.8934C86.8263 48.1398 86.976 46.3313 86.976 46.3313L82.3353 46.9341Z" fill="#FFB9B9"/>
<path d="M76.0479 56.2781C76.0479 56.2781 78.2934 58.5387 78.2934 58.8402C78.2934 59.1416 76.7964 60.498 77.8443 62.3065C78.8922 64.115 78.8922 68.6363 78.8922 68.6363L82.485 69.3898L89.2215 68.787L90.2694 58.388C90.2694 58.388 87.5748 58.8402 86.976 59.2923C86.3772 59.7444 84.7305 58.6894 83.5329 58.6894C82.3353 58.6894 78.8922 58.0866 78.8922 58.0866L79.1916 56.8809L77.994 54.771L76.0479 56.2781Z" fill="#FF6584"/>
<path d="M84.506 72.3287C84.506 72.3287 69.3862 65.5467 68.1886 69.9173C66.991 74.2879 66.8413 84.8376 66.8413 84.8376C66.8413 84.8376 66.0928 92.0717 65.1946 92.8252C64.2964 93.5788 65.1946 95.8394 65.1946 95.8394L67.4401 96.593L69.5359 95.6887L70.4341 93.2773C70.4341 93.2773 70.7335 87.8518 71.9311 85.139C73.1287 82.4262 73.1287 76.0964 72.979 75.795C72.979 75.795 78.8174 83.0291 84.506 82.5769C90.1946 82.1248 91.018 80.8438 91.018 80.8438C91.018 80.8438 88.2485 72.3287 84.506 72.3287Z" fill="#2F2E41"/>
<path d="M66.0927 93.5788C66.0927 93.5788 65.4939 91.4688 64.1466 93.1266C62.7993 94.7845 56.6616 97.3465 56.5119 97.6479C56.3622 97.9494 53.6676 99.6072 56.8113 101.868C59.955 104.128 64.1466 101.868 64.1466 101.868C64.1466 101.868 67.7394 100.662 68.6376 100.813C69.5358 100.964 71.3322 100.059 71.4819 99.3057C71.6316 98.5522 71.278 91.9276 70.4818 92.6025C69.6855 93.2774 68.7873 95.0859 68.7873 95.0859C68.7873 95.0859 65.7933 95.8394 66.0927 93.5788Z" fill="#2F2E41"/>
<path d="M79.4162 68.2595C79.4162 68.2595 78.5929 68.1842 78.7426 70.1434C78.7426 70.1434 83.9072 71.7259 84.8054 73.0822C85.7036 74.4386 89.5959 78.5078 90.1947 81.3713C90.1947 81.3713 94.536 80.3163 92.1408 72.7808L89.3246 66.634C89.3246 66.634 87.6497 70.0681 79.4162 68.2595Z" fill="#2F2E41"/>
<path d="M82.9398 71.9225L88.024 69.6913C88.024 69.6913 90.4192 64.7179 90.4192 62.3066C90.4482 60.919 90.5544 59.5343 90.7373 58.1587C90.8505 57.2935 90.7519 56.4136 90.4501 55.5956C90.1483 54.7776 89.6525 54.0462 89.0058 53.4651C88.4772 52.9996 87.8836 52.6611 87.2755 52.6611C87.2755 52.6611 85.4791 55.9767 85.7785 58.9909C86.0779 62.0051 85.3294 66.5264 85.3294 66.5264L78.5649 70.1712" fill="#FFB9B9"/>
<path opacity="0.1" d="M82.9398 71.9226L88.024 69.6915C88.024 69.6915 90.4192 64.718 90.4192 62.3067C90.4192 61.0507 85.1797 57.3333 85.4791 60.3474C85.7785 63.3616 85.3294 66.5265 85.3294 66.5265L78.5649 70.1713" fill="black"/>
<path d="M85.3293 60.046L85.8066 62.0806L88.4731 63.3616H90.7186L91.7665 58.5389C91.7665 58.5389 89.9163 58.145 88.9701 58.6434C88.024 59.1418 85.8021 59.261 85.8021 59.261L85.3293 60.046Z" fill="#FF6584"/>
<path d="M84.5402 39.76C84.5402 39.76 84.732 40.4038 83.6449 40.9832C82.5578 41.5627 82.238 43.7516 83.517 44.3954C84.796 45.0392 85.1797 45.8762 84.5402 46.4556C83.9007 47.0351 82.7496 48.5802 84.2844 48.9665C85.8192 49.3528 86.011 50.1253 85.5634 50.4473C85.1157 50.7692 86.5866 49.8678 86.5866 49.8678C86.5866 49.8678 86.8424 51.413 88.1853 51.0267C89.5283 50.6404 90.8682 43.6186 89.3712 41.8101C87.9793 40.1285 84.5402 39.76 84.5402 39.76Z" fill="#2F2E41"/>
<path d="M84.1318 39.0973C84.1321 38.1541 89.9552 39.1896 91.157 40.5065C91.9892 41.4185 93.2532 42.7905 92.194 43.7576C91.1348 44.7248 90.9895 45.6349 91.7605 46.0193C92.5315 46.4036 94.0537 47.5791 92.6792 48.3677C91.3047 49.1563 91.3269 49.9523 91.8442 50.1408C92.3614 50.3293 90.7037 49.8606 90.7037 49.8606C90.7037 49.8606 90.8712 51.4179 89.4745 51.4104C88.0778 51.403 84.0709 43.6756 85.0281 41.5277C85.9182 39.5305 84.1318 39.0973 84.1318 39.0973Z" fill="#2F2E41"/>
<path d="M84.7388 38.8906C80.9904 38.6634 80.6143 41.5039 80.6143 41.5039C80.6402 43.1477 83.2331 42.3468 83.9533 42.5918C84.8222 41.9626 86.497 40.772 87.6947 39.9223C86.8251 39.3059 85.8007 38.9484 84.7388 38.8906Z" fill="#2F2E41"/>
<path d="M55.1284 33.8225H52.0791L66.6168 51.3057V47.6387L55.1284 33.8225Z" fill="white"/>
<path d="M72.7342 101.12L70.6228 103.335L117.306 106.53L114.678 103.991L72.7342 101.12Z" fill="white"/>
<path d="M119.019 88.6063C119.019 93.0178 116.414 94.558 113.201 94.558C113.126 94.558 113.052 94.5569 112.978 94.5553C112.829 94.5521 112.681 94.5451 112.536 94.5348C109.635 94.3284 107.383 92.7089 107.383 88.6063C107.383 84.3614 112.771 79.0043 113.177 78.607L113.177 78.6064C113.193 78.5908 113.201 78.5833 113.201 78.5833C113.201 78.5833 119.019 84.1953 119.019 88.6063Z" fill="white"/>
<path d="M112.989 93.883L115.117 90.8899L112.983 94.2119L112.978 94.5553C112.829 94.5521 112.681 94.5451 112.536 94.5348L112.765 90.1217L112.763 90.0872L112.767 90.0813L112.789 89.664L110.65 86.334L112.795 89.3513L112.801 89.4397L112.974 86.1054L111.143 82.6643L112.996 85.5205L113.177 78.607L113.177 78.5833V78.6064L113.147 84.0579L114.97 81.8966L113.14 84.5274L113.091 87.513L114.794 84.6476L113.085 87.9524L113.058 89.6123L115.528 85.624L113.048 90.1913L112.989 93.883Z" fill="#3F3D56"/>
</g>
<defs>
<clipPath id="clip0_16_847">
<rect width="150" height="114" fill="white"/>
</clipPath>
</defs>
</svg>
